<svg width="33" height="32" viewBox="0 0 33 32" fill="none" xmlns="http://www.w3.org/2000/svg">
<g clip-path="url(#clip0_9_369)">
<path fill-rule="evenodd" clip-rule="evenodd" d="M18.0121 7.72166C18.0121 7.55656 18.0121 2.91033 18.0121 2.75939C17.6772 -1.03306 12.1198 -0.877401 12.016 2.93392C12.016 4.26883 11.9782 7.24052 11.9735 8.55656C11.9729 8.98477 11.8878 9.40866 11.723 9.80392C11.5583 10.1992 11.3172 10.558 11.0134 10.86C10.7097 11.1619 10.3494 11.4009 9.95315 11.5633C9.55689 11.7258 9.13246 11.8084 8.70419 11.8066C8.46359 11.8066 3.4676 11.8443 3.08075 11.8066C2.29499 11.7966 1.53745 12.0991 0.974757 12.6475C0.412067 13.196 0.0903284 13.9454 0.0803188 14.7311C0.0703092 15.5167 0.372849 16.2742 0.921383 16.8368C1.46992 17.3994 2.21951 17.7211 3.00527 17.7311H7.8786C14.0965 17.7311 17.998 15.533 17.998 10.2217L18.0121 7.72166Z" fill="#F4F6F5"/>
<path fill-rule="evenodd" clip-rule="evenodd" d="M14.9832 24.2736C14.9832 24.4387 14.9832 29.0849 14.9832 29.2359C15.3181 33.0094 20.8661 32.8632 20.9887 29.0613C20.9887 27.7264 21.0265 24.7547 21.0312 23.4434C21.0312 23.0148 21.1159 22.5904 21.2803 22.1946C21.4448 21.7988 21.6858 21.4394 21.9896 21.137C22.2934 20.8345 22.6539 20.5951 23.0505 20.4324C23.447 20.2696 23.8719 20.1868 24.3005 20.1887C24.5411 20.1887 29.5371 20.151 29.924 20.1887C30.322 20.2088 30.7199 20.1485 31.094 20.0113C31.4682 19.874 31.8107 19.6628 32.1013 19.3901C32.3919 19.1174 32.6244 18.7889 32.785 18.4243C32.9457 18.0597 33.0311 17.6664 33.0362 17.268C33.0412 16.8696 32.9659 16.4742 32.8146 16.1056C32.6633 15.737 32.4392 15.4027 32.1557 15.1227C31.8722 14.8427 31.5351 14.6228 31.1646 14.4761C30.7941 14.3294 30.3978 14.2589 29.9995 14.2689H25.1167C18.8988 14.2642 14.9973 16.4623 14.9973 21.7642L14.9832 24.2736Z" fill="#F4A3EC"/>
</g>
<defs>
<clipPath id="clip0_9_369">
<rect width="33" height="32" fill="white"/>
</clipPath>
</defs>
</svg>
