<svg width="63" height="63" viewBox="0 0 63 63" fill="none" xmlns="http://www.w3.org/2000/svg">
<rect width="63" height="63" rx="13" fill="#F4F6F5"/>
<path d="M35.5875 15.3625H31.4998V17.9173H34.31V22.7287C34.31 26.9547 30.8718 30.3929 26.6458 30.3929C22.4198 30.3929 18.9816 26.9547 18.9816 22.7287V17.9173H21.7067V15.3625H17.7042C16.9987 15.3625 16.4269 15.9344 16.4269 16.6399V22.7287C16.4269 28.3637 21.0109 32.9477 26.6459 32.9477C32.2808 32.9477 36.8648 28.3637 36.8648 22.7287V16.6399C36.8648 15.9344 36.293 15.3625 35.5875 15.3625Z" fill="#1C1F1E"/>
<path d="M40.5691 34.0122V40.0584C40.5691 43.5801 37.7039 46.4453 34.1822 46.4453C30.6605 46.4453 27.7953 43.5801 27.7953 40.0584V31.7129H25.2406V40.0584C25.2406 44.9886 29.2515 49 34.1822 49C39.1124 49 43.1238 44.9886 43.1238 40.0584V34.0122H40.5691Z" fill="#1C1F1E"/>
<path d="M41.8469 25.7518C39.2403 25.7518 37.1202 27.8718 37.1202 30.4781C37.1202 33.0839 39.2403 35.2044 41.8465 35.2044C44.4528 35.2044 46.5728 33.0839 46.5732 30.4781C46.5732 27.8718 44.4528 25.7518 41.8469 25.7518ZM41.8465 32.6496C40.6488 32.6496 39.6746 31.6755 39.6746 30.4781C39.6746 29.2808 40.6487 28.3066 41.8465 28.3066C43.0439 28.3066 44.018 29.2808 44.018 30.4781C44.018 31.6755 43.0439 32.6496 41.8465 32.6496Z" fill="#1C1F1E"/>
<path d="M21.6641 14C20.9585 14 20.3867 14.5718 20.3867 15.2774V18.0024C20.3867 18.708 20.9585 19.2798 21.6641 19.2798C22.3696 19.2798 22.9414 18.708 22.9414 18.0024V15.2774C22.9414 14.5718 22.3696 14 21.6641 14Z" fill="#1C1F1E"/>
<path d="M31.5424 14C30.8368 14 30.265 14.5718 30.265 15.2774V18.0024C30.265 18.708 30.8368 19.2798 31.5424 19.2798C32.2479 19.2798 32.8197 18.708 32.8197 18.0024V15.2774C32.8197 14.5718 32.2479 14 31.5424 14Z" fill="#1C1F1E"/>
</svg>
