<svg width="63" height="63" viewBox="0 0 63 63" fill="none" xmlns="http://www.w3.org/2000/svg">
<rect width="63" height="63" rx="13" fill="#F4F6F5"/>
<g clip-path="url(#clip0_9_446)">
<path d="M35.2236 21.22C35.2236 22.9945 33.7781 24.44 32.0036 24.44C30.2288 24.44 28.7836 22.9946 28.7836 21.22C28.7836 19.4455 30.229 18 32.0036 18C33.7781 18 35.2236 19.4455 35.2236 21.22Z" stroke="#1C1F1E" stroke-width="2"/>
<path d="M25.1648 29.2023L25.165 29.202C25.3121 29.0022 25.5159 28.9054 25.7272 28.9054H38.2052C38.4165 28.9054 38.6204 29.0021 38.7678 29.2023C38.917 29.4052 38.9704 29.6666 38.9045 29.9275L36.2183 40.5539L36.2183 40.5539C35.6978 42.613 33.9295 44.0041 31.9662 44.0041C30.0029 44.0041 28.2345 42.613 27.7141 40.5539L27.7141 40.5539L25.0279 29.9273C25.0278 29.9272 25.0278 29.9271 25.0278 29.927C24.9621 29.6663 25.0156 29.405 25.1648 29.2023Z" stroke="#1C1F1E" stroke-width="2"/>
</g>
<defs>
<clipPath id="clip0_9_446">
<rect width="16" height="28" fill="white" transform="translate(24 17)"/>
</clipPath>
</defs>
</svg>
