<svg width="63" height="63" viewBox="0 0 63 63" fill="none" xmlns="http://www.w3.org/2000/svg">
<rect width="63" height="63" rx="13" fill="#F4F6F5"/>
<path d="M31.772 29.4145C33.8896 29.4145 35.7231 28.655 37.2217 27.1565C38.7197 25.6582 39.4795 23.8249 39.4795 21.707C39.4795 19.5898 38.72 17.7563 37.2214 16.2576C35.7229 14.7595 33.8894 14 31.772 14C29.6541 14 27.8208 14.7595 26.3225 16.2578C24.8242 17.7561 24.0645 19.5896 24.0645 21.707C24.0645 23.8249 24.8242 25.6584 26.3225 27.1567C27.8213 28.6548 29.6548 29.4145 31.772 29.4145V29.4145ZM27.6487 17.5837C28.7983 16.4341 30.147 15.8752 31.772 15.8752C33.3967 15.8752 34.7456 16.4341 35.8955 17.5837C37.0452 18.7336 37.6042 20.0825 37.6042 21.707C37.6042 23.332 37.0452 24.6806 35.8955 25.8305C34.7456 26.9804 33.3967 27.5393 31.772 27.5393C30.1475 27.5393 28.7988 26.9802 27.6487 25.8305C26.4988 24.6809 25.9397 23.332 25.9397 21.707C25.9397 20.0825 26.4988 18.7336 27.6487 17.5837Z" fill="#1C1F1E" stroke="#F4F6F5"/>
<path d="M45.2581 39.6064C45.2148 38.9829 45.1274 38.3027 44.9988 37.5845C44.8689 36.8608 44.7017 36.1767 44.5015 35.5515C44.2944 34.9053 44.0134 34.2671 43.6655 33.6555C43.3049 33.0207 42.8811 32.468 42.4055 32.0132C41.9082 31.5374 41.2993 31.1548 40.5952 30.8757C39.8936 30.5981 39.116 30.4575 38.2842 30.4575C37.9575 30.4575 37.6416 30.5916 37.0315 30.9888C36.656 31.2336 36.2168 31.5168 35.7266 31.8301C35.3074 32.0972 34.7395 32.3474 34.0381 32.574C33.3538 32.7954 32.6589 32.9077 31.9729 32.9077C31.2874 32.9077 30.5925 32.7954 29.9077 32.574C29.207 32.3477 28.6389 32.0974 28.2205 31.8303C27.7349 31.52 27.2954 31.2368 26.9143 30.9885C26.3047 30.5913 25.9888 30.4573 25.6621 30.4573C24.8301 30.4573 24.0527 30.5981 23.3513 30.876C22.6477 31.1545 22.0386 31.5371 21.5408 32.0134C21.0652 32.4685 20.6414 33.021 20.281 33.6555C19.9336 34.2671 19.6523 34.905 19.4453 35.5517C19.2454 36.177 19.0781 36.8608 18.9482 37.5845C18.8193 38.3017 18.7322 38.9822 18.689 39.6072C18.6465 40.2182 18.625 40.8542 18.625 41.4968C18.625 43.1672 19.156 44.5195 20.2031 45.5168C21.2373 46.5009 22.6055 47 24.2698 47H39.678C41.3418 47 42.71 46.5009 43.7444 45.5168C44.7917 44.5202 45.3228 43.1675 45.3228 41.4966C45.3225 40.8518 45.3008 40.2158 45.2581 39.6064V39.6064ZM42.4514 44.1582C41.7681 44.8086 40.8608 45.1247 39.6777 45.1247H24.2698C23.0864 45.1247 22.1792 44.8086 21.4961 44.1584C20.8259 43.5205 20.5002 42.6496 20.5002 41.4968C20.5002 40.8972 20.52 40.3052 20.5596 39.7368C20.5981 39.1792 20.677 38.5666 20.7939 37.9158C20.9094 37.2729 21.0564 36.6697 21.2312 36.1235C21.3989 35.5998 21.6277 35.0813 21.9114 34.5818C22.1821 34.1057 22.4937 33.6973 22.8374 33.3682C23.1589 33.0603 23.5642 32.8083 24.0417 32.6194C24.4834 32.4446 24.9797 32.3489 25.5186 32.3345C25.5842 32.3694 25.7012 32.436 25.8906 32.5596C26.2761 32.8108 26.7205 33.0974 27.2117 33.4111C27.7654 33.7642 28.4788 34.083 29.3311 34.3581C30.2024 34.6399 31.0911 34.783 31.9731 34.783C32.8552 34.783 33.7441 34.6399 34.615 34.3584C35.468 34.0828 36.1812 33.7642 36.7356 33.4106C37.2383 33.0894 37.6702 32.811 38.0557 32.5596C38.2451 32.4363 38.3621 32.3694 38.4277 32.3345C38.9668 32.3489 39.4631 32.4446 39.905 32.6194C40.3823 32.8083 40.7876 33.0605 41.1091 33.3682C41.4529 33.697 41.7644 34.1055 42.0352 34.582C42.3191 35.0813 42.5481 35.6001 42.7156 36.1233C42.8906 36.6702 43.0378 37.2732 43.1531 37.9155C43.2698 38.5676 43.3489 39.1804 43.3875 39.737V39.7375C43.4272 40.3037 43.4473 40.8955 43.4475 41.4968C43.4473 42.6499 43.1216 43.5205 42.4514 44.1582V44.1582Z" fill="#1C1F1E" stroke="#F4F6F5"/>
</svg>
