<svg width="63" height="63" viewBox="0 0 63 63" fill="none" xmlns="http://www.w3.org/2000/svg">
<rect width="63" height="63" rx="13" fill="#66CA98"/>
<g clip-path="url(#clip0_9_438)">
<path d="M35.2913 22.2182C35.2913 23.9912 33.8463 25.4361 32.0713 25.4361C30.2961 25.4361 28.8513 23.9912 28.8513 22.2182C28.8513 20.4448 30.2963 19 32.0713 19C33.8463 19 35.2913 20.4448 35.2913 22.2182Z" stroke="white" stroke-width="2"/>
<path d="M36.2882 32.8244L36.2882 32.8244L38.9744 43.0715C38.9744 43.0716 38.9744 43.0717 38.9744 43.0718C39.0344 43.3011 38.9874 43.5327 38.8457 43.7182C38.7042 43.9035 38.4988 44.0039 38.2729 44.0039H25.7946C25.5687 44.0039 25.3633 43.9035 25.2217 43.7182C25.08 43.5326 25.0331 43.3011 25.0932 43.072L25.0933 43.0718L27.7793 32.8244C27.7793 32.8244 27.7793 32.8244 27.7793 32.8244C28.2911 30.8718 30.045 29.5159 32.0339 29.5159C34.0226 29.5159 35.7763 30.8717 36.2882 32.8244Z" stroke="white" stroke-width="2"/>
</g>
<defs>
<clipPath id="clip0_9_438">
<rect width="16" height="27" fill="white" transform="translate(24 18)"/>
</clipPath>
</defs>
</svg>
